{
  "accessors": [
    {
      "bufferView": 2,
      "componentType": 5126,
      "count": 3895,
      "max": [
        4.579916000366211,
        7.909397125244141,
        12.023996353149414
      ],
      "min": [
        -3.5467450618743896,
        -1.8076740503311157,
        0.03012000024318695
      ],
      "type": "VEC3"
    },
    {
      "bufferView": 2,
      "byteOffset": 46740,
      "componentType": 5126,
      "count": 3895,
      "max": [
        0.9993003606796265,
        0.9998767971992493,
        0.9999992847442627
      ],
      "min": [
        -0.9993003606796265,
        -0.9999608993530273,
        -0.9999624490737915
      ],
      "type": "VEC3"
    },
    {
      "bufferView": 0,
      "componentType": 5125,
      "count": 23256,
      "type": "SCALAR"
    },
    {
      "bufferView": 2,
      "byteOffset": 93480,
      "componentType": 5126,
      "count": 123,
      "max": [
        0.9973649978637695,
        -1.7390400171279907,
        6.729716777801514
      ],
      "min": [
        0.03580600023269653,
        -1.9472620487213135,
        6.165194034576416
      ],
      "type": "VEC3"
    },
    {
      "bufferView": 2,
      "byteOffset": 94956,
      "componentType": 5126,
      "count": 123,
      "max": [
        0.7917234301567078,
        -0.6059131622314453,
        0.769752025604248
      ],
      "min": [
        -0.7917171716690063,
        -0.9999449253082275,
        -0.687439501285553
      ],
      "type": "VEC3"
    },
    {
      "bufferView": 0,
      "byteOffset": 93024,
      "componentType": 5125,
      "count": 624,
      "type": "SCALAR"
    },
    {
      "bufferView": 2,
      "byteOffset": 96432,
      "componentType": 5126,
      "count": 830,
      "max": [
        2.1266820430755615,
        -0.15740500390529633,
        8.318228721618652
      ],
      "min": [
        -1.0935109853744507,
        -1.4291820526123047,
        6.687082767486572
      ],
      "type": "VEC3"
    },
    {
      "bufferView": 2,
      "byteOffset": 106392,
      "componentType": 5126,
      "count": 830,
      "max": [
        0.9998869895935059,
        0.9928558468818665,
        0.9958481192588806
      ],
      "min": [
        -0.9998869895935059,
        -0.9926018118858337,
        -0.9959314465522766
      ],
      "type": "VEC3"
    },
    {
      "bufferView": 1,
      "componentType": 5126,
      "count": 830,
      "max": [
        0.9971169829368591,
        0.5351830124855042
      ],
      "min": [
        0.0023320000618696213,
        0.007317999843508005
      ],
      "type": "VEC2"
    },
    {
      "bufferView": 0,
      "byteOffset": 95520,
      "componentType": 5125,
      "count": 4608,
      "type": "SCALAR"
    }
  ],
  "asset": {
    "extras": {
      "author": "vincentskc (https://sketchfab.com/vincentskc)",
      "license": "CC-BY-4.0 (http://creativecommons.org/licenses/by/4.0/)",
      "source": "https://sketchfab.com/3d-models/ori-from-the-game-ori-and-the-blind-forest-9154a505ba8143cba354d04ac9f7ac29",
      "title": "Ori from the game \"Ori and the Blind Forest\""
    },
    "generator": "Sketchfab-12.68.0",
    "version": "2.0"
  },
  "bufferViews": [
    {
      "buffer": 0,
      "byteLength": 113952,
      "name": "floatBufferViews",
      "target": 34963
    },
    {
      "buffer": 0,
      "byteLength": 6640,
      "byteOffset": 113952,
      "byteStride": 8,
      "name": "floatBufferViews",
      "target": 34962
    },
    {
      "buffer": 0,
      "byteLength": 116352,
      "byteOffset": 120592,
      "byteStride": 12,
      "name": "floatBufferViews",
      "target": 34962
    }
  ],
  "buffers": [
    {
      "byteLength": 236944,
      "uri": "scene.bin"
    }
  ],
  "images": [
    {
      "uri": "textures/Yeux_baseColor.png"
    }
  ],
  "materials": [
    {
      "doubleSided": true,
      "emissiveFactor": [
        0.4,
        0.4,
        0.4
      ],
      "name": "Corps",
      "pbrMetallicRoughness": {
        "baseColorFactor": [
          0.6513748964498259,
          1.0,
          0.9792822568590349,
          1.0
        ],
        "metallicFactor": 0.0,
        "roughnessFactor": 0.6
      }
    },
    {
      "doubleSided": true,
      "name": "material",
      "pbrMetallicRoughness": {
        "baseColorFactor": [
          0.2327205,
          0.17638254,
          0.20655748000000002,
          1.0
        ],
        "metallicFactor": 0.0,
        "roughnessFactor": 0.6
      }
    },
    {
      "doubleSided": true,
      "emissiveFactor": [
        1.0,
        1.0,
        1.0
      ],
      "emissiveTexture": {
        "index": 0
      },
      "name": "Yeux",
      "pbrMetallicRoughness": {
        "baseColorTexture": {
          "index": 0
        },
        "metallicFactor": 0.0,
        "roughnessFactor": 0.6
      }
    }
  ],
  "meshes": [
    {
      "name": "Object_0",
      "primitives": [
        {
          "attributes": {
            "NORMAL": 1,
            "POSITION": 0
          },
          "indices": 2,
          "material": 0,
          "mode": 4
        }
      ]
    },
    {
      "name": "Object_1",
      "primitives": [
        {
          "attributes": {
            "NORMAL": 4,
            "POSITION": 3
          },
          "indices": 5,
          "material": 1,
          "mode": 4
        }
      ]
    },
    {
      "name": "Object_2",
      "primitives": [
        {
          "attributes": {
            "NORMAL": 7,
            "POSITION": 6,
            "TEXCOORD_0": 8
          },
          "indices": 9,
          "material": 2,
          "mode": 4
        }
      ]
    }
  ],
  "nodes": [
    {
      "children": [
        1
      ],
      "matrix": [
        1.0,
        0.0,
        0.0,
        0.0,
        0.0,
        2.220446049250313e-16,
        -1.0,
        0.0,
        0.0,
        1.0,
        2.220446049250313e-16,
        0.0,
        0.0,
        0.0,
        0.0,
        1.0
      ],
      "name": "Sketchfab_model"
    },
    {
      "children": [
        2,
        3,
        4
      ],
      "name": "test.obj.cleaner.gles"
    },
    {
      "mesh": 0,
      "name": "Object_2"
    },
    {
      "mesh": 1,
      "name": "Object_3"
    },
    {
      "mesh": 2,
      "name": "Object_4"
    }
  ],
  "samplers": [
    {
      "magFilter": 9729,
      "minFilter": 9987,
      "wrapS": 10497,
      "wrapT": 10497
    }
  ],
  "scene": 0,
  "scenes": [
    {
      "name": "Sketchfab_Scene",
      "nodes": [
        0
      ]
    }
  ],
  "textures": [
    {
      "sampler": 0,
      "source": 0
    }
  ]
}
